<svg xmlns="http://www.w3.org/2000/svg" width="46" height="39" viewBox="0 0 46 39" fill="none">
	<g clip-path="url(#clip0_3651_103)">
		<path d="M39.3869 25.1204C38.1452 24.5871 36.7793 24.7416 35.7157 25.4113C36.8523 24.5656 38.3984 24.3297 39.7951 24.9288C41.8722 25.8204 42.8279 28.219 41.9311 30.2852C41.0523 32.3093 38.7233 33.2646 36.6771 32.4681C38.5698 33.0422 40.6373 32.1202 41.4413 30.2693C42.3044 28.2812 41.3853 25.9755 39.3882 25.1188L39.3869 25.1204Z" fill="#13341C" />
		<path d="M3.37046 30.6905C3.57646 27.1276 6.64759 24.4024 10.2279 24.6037C10.7898 24.6359 11.3305 24.7374 11.8431 24.8999L12.7372 22.7788L12.8311 22.8182L13.6452 21.0065C13.2761 20.8841 12.8385 20.7808 12.31 20.7094C10.9673 20.5277 8.80889 20.765 8.23376 20.9502C7.52528 21.1776 6.62274 21.7263 6.32693 21.8331C6.03112 21.94 5.39303 21.9381 5.39303 21.9381C5.39303 21.9381 6.82157 20.3751 7.41161 19.9455C8.00165 19.5159 9.70195 19.0642 11.1139 18.9198C11.6131 18.8677 12.4171 18.8389 13.229 18.8986L14.1176 15.7353L17.4129 13.2355L16.788 14.8084L17.319 15.0331L17.014 15.7115C17.0715 15.7025 17.1291 15.695 17.1864 15.6845C17.5322 15.6261 17.3542 15.6849 17.5881 15.5875C17.5881 15.5875 17.6065 15.6064 17.6349 15.6347C18.1128 15.2496 19.1497 14.31 19.4583 13.8234C19.8582 13.1932 20.4688 12.7168 20.685 12.5929C20.7985 12.0596 21.1669 10.4106 21.4797 9.87886C21.2245 9.74311 20.9655 9.61521 20.7001 9.49691C20.8199 9.10897 20.9405 8.75819 21.0663 8.52903C21.1166 8.43736 21.2195 8.33276 21.3589 8.21987C21.2978 8.09366 21.2244 7.96426 21.13 7.84897C20.5235 8.22069 19.9519 8.5545 19.7309 8.661C19.7309 8.661 19.3405 8.5498 18.9598 7.98765C18.6324 7.50486 18.6569 7.36673 18.6733 7.2652L18.8836 7.24324L19.2822 7.01688C19.2822 7.01688 18.8244 6.21697 18.5873 5.06476C18.5873 5.06476 17.2949 5.23545 17.0289 5.24087C16.7674 5.24583 16.4487 5.2344 16.4639 5.09277C16.4848 4.90585 18.5546 3.77648 18.711 3.59627C19.1345 3.10659 20.8769 2.39876 22.204 3.13325C22.4074 3.2461 22.5749 3.37312 22.7117 3.50782C22.7588 3.48503 22.7902 3.49962 22.93 3.66232C23.029 3.77862 23.0919 3.93594 23.1229 4.10403C23.3924 4.72099 23.3035 5.37537 23.3125 5.74838C23.319 5.9682 23.2371 6.27323 23.0371 6.53844L23.6244 6.88534C23.6407 6.88364 23.6537 6.8793 23.6623 6.87542C23.6586 6.88325 23.6535 6.89124 23.6483 6.89923L23.6658 6.90932C23.9012 6.79685 24.1168 6.69686 24.294 6.61578C24.5914 6.48045 24.9398 6.53346 25.1826 6.75095C25.9178 7.41018 27.5119 8.85276 28.63 10.0098C28.63 10.0098 29.3293 10.5268 30.7564 12.3056C31.2573 12.9297 31.3563 13.4483 31.528 13.5719C31.6996 13.6955 32.6743 15.0001 32.3597 16.0744C32.2416 16.4771 31.9078 16.8233 31.5226 17.1063C32.4994 16.7526 34.9028 15.721 35.3554 15.6529C35.8582 15.578 36.0583 15.5437 36.3065 15.5402C36.4739 15.5376 39.0666 14.8274 40.8366 14.4698C41.7164 14.2915 43.628 14.4867 43.628 14.4867C43.4914 14.5114 41.8336 15.3132 40.9196 15.6664C39.0716 16.3808 37.8722 17.1988 37.8973 17.2527C37.915 17.2926 37.4316 17.7692 36.921 18.256L38.7706 17.2703C38.8869 17.2075 39.0212 17.189 39.1527 17.2155L39.9791 17.3855C40.1811 17.427 40.346 17.5722 40.4331 17.7612C40.6467 17.8134 40.798 17.9436 40.8597 18.0042C40.9283 18.073 41.0188 18.4658 41.02 18.564C41.02 18.564 40.8413 18.7451 40.8089 18.7366C40.7782 18.7293 40.7238 18.437 40.5953 18.4683C40.5719 18.4738 40.5454 18.478 40.5203 18.4821L40.5458 19.0128C40.5588 19.2811 40.4179 19.5238 40.1906 19.6265L33.55 22.6127L33.0919 22.5562L32.8188 22.1497C32.2752 22.5357 31.6774 22.9914 31.3349 23.3251C31.0739 23.5789 30.3957 23.9387 29.6864 24.2735C29.6479 24.4354 29.6542 24.6105 29.7727 24.7695C29.8961 24.9339 30.0457 25.2624 30.1831 25.6176C30.3669 25.7861 30.6894 26.1636 30.4825 26.5055C30.5277 26.6662 30.5598 26.8014 30.5721 26.891L31.8372 27.0748C31.9167 26.7894 32.0144 26.5065 32.1365 26.2271C33.5597 22.9498 37.3818 21.4364 40.6753 22.849C43.9673 24.2618 45.4843 28.0634 44.0612 31.3422C42.6379 34.6194 38.8159 36.1329 35.5224 34.7202C32.9891 33.6334 31.5092 31.133 31.6087 28.5438L29.4163 28.2259C29.3911 28.3 29.3444 28.369 29.2777 28.4191L28.5598 28.9723C28.3935 29.0999 28.1584 29.0857 28.0098 28.9389L27.7524 28.6827C27.3689 29.0251 26.9493 29.3371 26.6213 29.5084C24.9697 30.3692 23.3017 29.6673 23.3017 29.6673C22.5297 29.5587 21.9993 29.7422 21.7695 29.6351C21.4579 29.4903 20.9647 29.0979 20.6 28.7456C20.3329 28.9269 20.045 29.0374 19.7722 29.0346C19.1188 29.0299 18.362 28.6798 18.1618 28.2538C17.8019 27.4883 17.9013 26.289 17.977 25.709C17.7293 25.7319 17.4821 25.7309 17.3596 25.5754C17.1145 25.2642 16.7697 25.1885 16.5808 24.8715C16.392 24.5545 16.2093 23.4786 16.147 23.1975C16.0846 22.915 16.0692 22.5099 16.0692 22.5099L16.2676 22.3447C15.8069 22.1917 15.1981 21.9394 14.9021 21.6857C14.777 21.5781 14.6329 21.474 14.4652 21.3738L13.6584 23.1698L13.7729 23.219L12.8798 25.3354C15.0581 26.4786 16.4846 28.8118 16.3331 31.4199C16.1271 34.9827 13.056 37.708 9.47571 37.5067C5.89541 37.3054 3.15985 34.2523 3.36586 30.6895L3.37046 30.6905ZM30.1537 23.1416C30.5984 22.9119 31.3966 21.8795 32.2616 21.3154L32.1109 21.0913C31.2773 21.6268 30.0388 22.428 30.0356 22.4552C30.014 22.6496 30.0054 22.9544 30.0029 23.2169C30.0613 23.1885 30.1139 23.1621 30.1537 23.1416ZM35.8731 33.9208C38.7215 35.143 42.0288 33.8338 43.2601 30.9982C44.4914 28.1626 43.1791 24.873 40.3307 23.6508C37.4824 22.4285 34.1751 23.7378 32.9438 26.5734C32.8532 26.781 32.7793 26.9913 32.7159 27.202L32.9197 27.2314C32.9788 27.0375 33.0484 26.844 33.1318 26.6535C34.3185 23.9209 37.5065 22.6599 40.2513 23.8364C42.9962 25.0143 44.2601 28.1853 43.075 30.9177C41.8884 33.6503 38.7003 34.9113 35.9555 33.7349C33.8815 32.8445 32.6531 30.817 32.6882 28.7007L32.486 28.6712C32.4392 30.8765 33.7144 32.9931 35.8746 33.9206L35.8731 33.9208ZM39.6365 28.7187C39.6711 29.5375 39.0305 30.2286 38.2091 30.2637C37.5426 30.2916 36.9606 29.88 36.7461 29.2886L33.0257 28.7489C33.0096 30.7172 34.1596 32.5965 36.0893 33.4245C38.6634 34.5293 41.6514 33.3458 42.7645 30.7833C43.8775 28.2208 42.6912 25.2488 40.1172 24.1439C37.5431 23.039 34.5551 24.2225 33.4421 26.785C33.3708 26.9489 33.3101 27.1132 33.2571 27.2796L37.0109 27.8233C37.271 27.5175 37.6528 27.3168 38.0852 27.2985C38.908 27.2632 39.6019 27.8999 39.6363 28.7172L39.6365 28.7187ZM20.9096 17.2252C21.6662 17.4307 22.6199 17.7155 23.332 17.9675C24.5071 16.4726 26.4183 14.1545 26.4183 14.1545C26.4183 14.1545 26.1588 13.8777 25.8656 13.5791C25.2504 13.022 24.2581 12.2094 23.6118 11.7986C23.4241 12.2667 23.0888 13.0853 22.9637 13.2787C22.9379 13.3186 22.9044 13.3564 22.8678 13.393C22.7652 13.5139 22.6048 13.699 22.5149 13.7844L22.2629 14.0238C22.1004 14.1748 21.8899 14.3815 21.7361 14.557C21.6331 14.675 21.4622 14.8314 21.2458 14.9955C20.8535 15.2972 20.319 15.6272 19.8113 15.8128C19.0255 16.1034 18.3698 16.3774 18.3698 16.3774C18.3698 16.3774 18.3698 16.3774 18.2663 16.275C18.3082 16.3183 18.345 16.3547 18.3701 16.3804C18.5355 16.5449 18.494 16.5775 18.4712 16.6886C18.4484 16.7998 18.2436 16.7318 18.0552 16.8349C18.0227 16.8532 17.9891 16.876 17.9544 16.902C18.7114 16.7947 19.3409 16.8005 20.9096 17.2252ZM19.5206 28.1164C19.7122 28.1589 19.9101 28.104 20.0904 28.0092C20.0425 27.8235 20.019 27.6844 19.8658 27.3786C19.6901 27.029 19.0306 26.0624 18.707 25.7744C18.6783 26.1588 18.6462 26.6687 18.6638 26.8948C18.7256 27.6586 18.8984 27.9802 19.5191 28.1165L19.5206 28.1164ZM11.9985 27.4357C13.2543 28.1911 14.0599 29.5968 13.9683 31.1573C13.8402 33.3577 11.982 35.0505 9.78316 35.0015C11.7606 34.8948 13.3844 33.3234 13.5006 31.3104C13.5823 29.8984 12.9021 28.6182 11.8145 27.8676L10.9238 29.9778C11.1931 30.2343 11.3679 30.5885 11.3857 30.9889C11.4203 31.8077 10.7797 32.4988 9.95827 32.5339C9.1354 32.5692 8.44151 31.9324 8.40709 31.1151C8.37252 30.2964 9.01312 29.6052 9.83451 29.5701C9.84636 29.5689 9.85852 29.5706 9.87053 29.5708L10.8008 27.3656C10.4829 27.2617 10.1451 27.1957 9.79579 27.177C8.44465 27.1006 7.21471 27.7117 6.4468 28.7037C7.22331 27.5216 8.59453 26.7721 10.1129 26.8579C10.405 26.8736 10.687 26.9216 10.9582 26.9946L11.2896 26.2106C10.9236 26.1043 10.5421 26.0354 10.1444 26.0128C7.34432 25.8552 4.94485 27.9859 4.78341 30.7709C4.62196 33.5559 6.76087 35.9427 9.55949 36.1005C12.3596 36.2581 14.7591 34.1274 14.9205 31.3424C15.0356 29.3474 13.9728 27.5574 12.3306 26.6442L11.9957 27.4375L11.9985 27.4357ZM9.53015 36.6369C12.6285 36.811 15.2843 34.4539 15.464 31.3706C15.5937 29.1417 14.3908 27.1442 12.5448 26.1421L12.4655 26.3292C14.2347 27.2976 15.3844 29.2171 15.2607 31.359C15.0887 34.3298 12.5273 36.6026 9.54196 36.4345C6.55659 36.2665 4.27526 33.7202 4.44724 30.7494C4.61923 27.7786 7.18056 25.5058 10.1659 25.6739C10.6012 25.6984 11.0225 25.7751 11.4228 25.8943L11.5019 25.7057C11.0799 25.5785 10.6371 25.4966 10.1776 25.47C7.07928 25.2959 4.42344 27.653 4.24374 30.7364C4.06552 33.8196 6.43153 36.4598 9.53 36.6354L9.53015 36.6369Z" fill="#13341C" />
	</g>
	<defs>
		<clipPath id="clip0_3651_103">
			<rect width="41.8119" height="34.0928" fill="white" transform="matrix(-0.994594 0.103842 0.103842 0.994594 42.1777 0.580078)" />
		</clipPath>
	</defs>
</svg>
