<svg width="16" height="17" viewBox="0 0 16 17" fill="none" xmlns="http://www.w3.org/2000/svg">
<path d="M7.75276 14.8971C11.3226 14.8971 14.2165 12.0032 14.2165 8.43342C14.2165 4.86362 11.3226 1.96973 7.75276 1.96973C4.18296 1.96973 1.28906 4.86362 1.28906 8.43342C1.28906 12.0032 4.18296 14.8971 7.75276 14.8971Z" fill="#E64827"/>
<path d="M10.1507 10.9731C10.0666 10.9731 9.9826 10.9537 9.90504 10.902L7.90129 9.70622C7.40359 9.40889 7.03516 8.75606 7.03516 8.18079V5.53068C7.03516 5.26566 7.25492 5.0459 7.51993 5.0459C7.78494 5.0459 8.00471 5.26566 8.00471 5.53068V8.18079C8.00471 8.41348 8.19862 8.75606 8.399 8.87241L10.4027 10.0682C10.6354 10.2039 10.7065 10.5013 10.5708 10.7339C10.4738 10.8891 10.3122 10.9731 10.1507 10.9731Z" fill="#FEEEE8"/>
</svg>
