<svg xmlns="http://www.w3.org/2000/svg" width="112" height="111" viewBox="0 0 112 111" fill="none" version="1.1" xmlns:xlink="http://www.w3.org/1999/xlink">
	<path d="M109.153 23.3968C109.153 23.863 109.159 24.3292 109.153 24.7955C109.148 25.3326 108.878 25.6316 108.333 25.6418C107.798 25.6519 107.344 25.8445 106.973 26.2195C106.83 26.3665 106.753 26.5337 106.713 26.7516C106.386 28.4898 106.122 30.2382 105.673 31.946C105.418 32.9139 104.827 33.7703 103.905 34.3227C103.171 34.7636 102.407 34.4748 101.739 34.2923C100.618 33.9933 99.7417 34.2771 98.9264 34.9612C98.0652 35.691 97.4741 36.6386 96.8932 37.5863C95.6957 39.5475 94.1161 41.1844 92.3682 42.6185C90.9516 43.779 89.321 44.6811 87.7923 45.7047C87.0585 46.1963 87.084 46.7689 87.8279 47.2453C88.8369 47.8889 89.9325 48.3754 90.9873 48.9379C94.3657 50.7369 97.785 52.46 101.097 54.3705C102.305 55.0647 103.166 56.2759 104.012 57.4314C105.541 59.5142 106.213 61.9973 107.385 64.2423C108.083 65.5751 108.996 66.7559 109.826 67.9924C110.514 69.0161 111.212 70.0296 111.895 71.0584C112.165 71.4638 111.885 72.0111 111.39 72.0972C109.622 72.4114 107.854 72.7206 106.091 73.0449C105.118 73.2223 104.19 72.8929 103.263 72.7408C102.595 72.6344 101.907 72.5178 101.24 72.3912C99.8742 72.1378 98.4933 71.9351 97.1327 71.6411C97.0919 71.631 97.0512 71.6259 97.0104 71.631C95.6855 71.7324 94.381 71.3168 93.0663 71.3928C91.5784 71.479 90.2331 71.0026 88.8726 70.5415C86.075 69.6039 83.3335 68.5042 80.4952 67.7035C79.3742 67.3843 78.2531 67.0194 77.0709 67.0042C76.011 66.989 75.5779 67.4451 75.3741 68.4688C75.0225 70.283 74.6097 72.077 73.8402 73.7797C73.3103 74.9503 72.9179 76.1818 72.4389 77.3778C72.072 78.2849 71.537 79.1109 70.8796 79.8153C69.7178 81.0569 68.4949 82.2377 67.5522 83.6617C66.8235 84.7664 66.2731 85.9624 65.8909 87.2091C65.3202 89.0892 64.9279 91.025 64.3673 92.9051C63.9138 94.4254 62.5838 95.4035 60.8258 94.7802C59.8576 94.4356 58.8895 94.0707 57.8907 93.8325C56.6473 93.5335 55.0116 93.8325 54.5071 94.9423C54.2931 95.4136 54.1555 95.9255 54.1301 96.4525C54.1148 96.716 54.0995 96.9796 54.1301 97.2431C54.3696 99.4779 53.4421 101.317 52.1682 103.056C51.2612 104.292 50.3745 105.544 49.4981 106.801C49.0293 107.475 48.428 108.032 47.8114 108.544C47.1235 109.117 46.4967 109.745 45.8546 110.358C45.5744 110.627 45.2839 110.779 44.8865 110.779C44.3412 110.774 43.8062 110.824 43.2609 110.951C42.4966 111.129 41.7475 110.774 40.9933 110.667C40.0303 110.541 39.1334 110.125 38.2315 109.775C37.6404 109.542 37.2174 109.051 36.7231 108.671C35.5409 107.753 34.8632 106.441 34.0734 105.23C33.2122 103.902 32.188 102.767 30.7 102.214C29.0694 101.611 27.3725 101.439 25.7827 102.387C25.1559 102.762 24.6769 103.345 24.2743 103.953C24.0043 104.363 23.6527 104.647 23.2246 104.845C22.4144 105.23 21.4207 104.591 21.3137 103.573C21.1863 102.382 21.273 101.201 21.6602 100.046C22.338 98.0286 22.1851 96.189 20.5901 94.5673C19.3621 93.3156 17.9811 92.368 16.3505 91.7193C14.674 91.0504 13.074 90.199 11.5707 89.2108C10.6382 88.5976 10.0013 87.726 9.74648 86.5401C9.52227 85.5063 9.56813 84.4928 9.56304 83.4691C9.56304 82.1464 9.2522 80.9099 8.65091 79.7545C7.90693 78.3254 7.37189 76.8304 7.28526 75.224C7.24959 74.6108 7.15277 73.8861 7.79993 73.3895C8.12095 73.1412 8.4267 72.9587 8.84454 72.9891C9.04837 73.0043 9.2522 73.0094 9.45603 72.9891C9.88407 72.9486 10.4701 73.1918 10.6688 72.6851C10.8421 72.2442 10.3631 71.8793 10.0981 71.5651C9.46112 70.81 8.85983 70.0195 8.15153 69.3201C7.4738 68.6512 6.90308 67.886 6.33746 67.1258C5.84317 66.462 5.14506 66.1427 4.33485 66.0059C2.98958 65.7778 1.56278 65.7221 0.599695 64.5413C0.0748373 63.8977 -0.0831295 63.1376 0.0391674 62.3267C0.0850287 62.0277 0.334718 61.8453 0.579312 61.6983C2.41886 60.5987 4.27879 59.5294 6.10815 58.4094C7.27507 57.6949 8.47765 57.031 9.42036 55.9871C10.6637 54.6188 12.2434 53.6357 13.7109 52.5258C15.0868 51.4819 16.4117 50.3873 17.5786 49.1153C17.8945 48.7707 18.2461 48.5882 18.7149 48.7555C19.1532 48.9075 19.4385 49.1356 19.4181 49.6727C19.3977 50.2809 20.585 51.3451 21.2016 51.3299C21.6959 51.3147 21.915 50.889 22.1953 50.5951C22.7303 50.0376 23.3571 49.7741 24.1113 49.9261C25.1763 50.144 26.2464 50.367 27.291 50.6812C28.5751 51.0663 29.8541 50.9853 31.1026 50.5089C32.7026 49.8957 33.8084 48.6997 34.8072 47.372C35.597 46.323 36.3766 45.2638 37.2021 44.2503C37.6862 43.6523 38.2722 43.1709 38.9856 42.8111C40.1373 42.2283 41.243 41.5391 42.3692 40.9056C42.6596 40.7435 42.8227 40.5205 42.8329 40.181C42.8737 38.9039 42.8023 37.6522 42.4201 36.4157C42.145 35.5187 42.0227 34.5761 41.8239 33.6487C41.6354 32.7669 41.4469 31.8852 41.2481 31.0034C41.0443 30.1064 40.7997 29.2145 40.6214 28.3124C40.5143 27.7803 40.3564 27.2634 40.2901 26.7161C40.2545 26.4019 40.2647 26.0979 40.443 25.9256C40.973 25.4188 41.4876 24.8816 42.3233 24.8107C43.3781 24.7245 44.3922 24.4661 45.1463 23.6299C45.2279 23.5387 45.3145 23.4424 45.4215 23.3917C46.3336 22.9458 46.4356 22.0741 46.4508 21.238C46.461 20.5589 46.6547 19.9254 46.7719 19.2768C46.8687 18.7345 47.8471 18.0656 48.4331 18.0098C49.3707 17.9186 50.1962 18.1821 50.9554 18.7092C51.0574 18.7801 51.1491 18.8612 51.251 18.922C52.6217 19.7582 53.4014 19.6518 54.6345 18.5622C56.0868 17.275 57.534 15.9929 59.4041 15.2733C60.6373 14.7969 61.7278 14.0368 62.8182 13.2969C63.8883 12.5722 65.1164 12.3188 66.3088 11.9641C67.4859 11.6144 68.6834 11.3205 69.8809 11.0418C70.4924 10.8999 71.0886 10.7022 71.6899 10.5502C72.1281 10.4387 72.3982 10.2005 72.6326 9.85595C73.0504 9.24276 73.6415 9.06032 74.2479 9.4708C74.9307 9.93196 75.7511 10.0282 76.4645 10.4083C76.7958 10.5857 77.2238 10.5401 77.5907 10.3779C78.6914 9.89142 79.3232 9.08059 79.522 7.87448C79.7716 6.34911 80.2608 4.89975 81.3666 3.74939C81.7692 3.32877 82.2329 2.95376 82.7017 2.60916C83.7922 1.80846 84.6788 0.703709 85.9935 0.252686C87.7057 -0.340233 88.9184 0.0651812 89.3363 1.95036C89.8611 4.32203 91.1453 6.08052 93.2039 7.3221C93.4791 7.48934 93.7543 7.66164 94.0294 7.82887C94.9212 8.38632 95.8333 8.58396 96.8932 8.29003C97.9378 8.00117 99.0436 8.57382 99.5837 9.53668C100.455 11.0823 101.332 12.628 102.086 14.2344C102.641 15.4152 103.594 16.1703 104.695 16.8291C105.78 17.4777 106.932 18.0352 107.823 18.998C108.68 19.9254 108.965 21.0505 109.133 22.2312C109.194 22.6214 109.148 23.0117 109.153 23.3968C109.15 23.3968 109.15 23.3968 109.153 23.3968Z" fill="#E64827" />
	<path d="M32.8176 61.1234C18.5172 61.0539 18.4483 61.0191 18.3103 61.0191C18.2414 60.9496 18.1724 60.9844 18.1034 61.1234C18.1724 61.1929 18.2414 61.2277 18.3103 61.2277C18.4483 61.2277 18.5172 61.1929 18.5172 61.1234C19.069 61.1929 19.5172 61.0886 19.8621 60.8106C20.2759 60.5326 20.6897 60.4979 21.1034 60.7064C21.4483 60.4979 21.9655 60.2546 22.6552 59.9766C23.4138 59.6986 23.9655 59.6291 24.3103 59.7681C25.3448 58.934 26.5517 58.6213 27.931 58.8298C28.2759 58.4823 28.6207 58.239 28.9655 58.1C29.3103 57.961 29.7931 57.961 30.4138 58.1C30.4828 57.7525 30.7931 57.5787 31.3448 57.5787C31.8966 57.5092 32.3448 57.3355 32.6897 57.0574C32.8276 57.0574 32.8621 57.0922 32.7931 57.1617C32.7931 57.2312 32.7931 57.3355 32.7931 57.4745C33.1379 57.4745 33.3103 57.3702 33.3103 57.1617C33.3103 56.9532 33.3448 56.8142 33.4138 56.7447C33.7586 56.6752 33.8965 56.7099 33.8276 56.8489C33.8276 56.9879 33.8965 57.0922 34.0345 57.1617C34.1724 57.0922 34.2414 56.9184 34.2414 56.6404C34.4483 56.6404 34.5517 56.7794 34.5517 57.0574C34.8276 56.7099 35.1724 56.4667 35.5862 56.3277C36.069 56.1887 36.5517 56.0844 37.0345 56.0149C37.5862 55.8759 38.1034 55.7716 38.5862 55.7021C39.069 55.6326 39.5172 55.5284 39.931 55.3894C40.2759 55.2504 40.3793 54.9723 40.2414 54.5553C40.4483 54.5553 40.5517 54.5901 40.5517 54.6596C40.5517 54.7291 40.5172 54.7986 40.4483 54.8681C40.4483 54.9376 40.4483 55.0418 40.4483 55.1809C40.4483 55.2504 40.5172 55.2851 40.6552 55.2851C40.7931 55.1461 40.8965 54.9723 40.9655 54.7638C41.0345 54.5553 41.1379 54.3816 41.2759 54.2426C40.6552 54.034 40.1724 54.034 39.8276 54.2426C39.4828 54.3816 39 54.3816 38.3793 54.2426C38.7931 54.1035 39.2759 53.9645 39.8276 53.8255C40.4483 53.617 40.931 53.5823 41.2759 53.7213C41.6207 52.1227 42 50.4894 42.4138 48.8213C42.8965 47.1532 43.3793 45.5199 43.8621 43.9213C44 43.7823 44.0345 43.7128 43.9655 43.7128C43.8966 43.7128 43.8621 43.7823 43.8621 43.9213C43.3793 44.4773 43.069 45.1723 42.931 46.0064C42.7931 46.8404 42.4828 47.5355 42 48.0915C42.1379 47.327 42.3448 46.5624 42.6207 45.7979C42.9655 45.0333 43.1379 44.3035 43.1379 43.6085C43.2759 43.539 43.3448 43.4695 43.3448 43.4C43.3448 43.3305 43.4138 43.3652 43.5517 43.5043C43.4138 42.8092 43.4828 42.2184 43.7586 41.7319C44.0345 41.2454 44.1724 40.6546 44.1724 39.9596C44.3793 40.0291 44.4138 40.1681 44.2759 40.3766C44.2069 40.5851 44.1724 40.7936 44.1724 41.0021C44.5172 40.7936 44.7586 40.4114 44.8965 39.8553C45.1034 39.2993 45.1034 38.8475 44.8965 38.5C45.0345 38.361 45.1379 38.2567 45.2069 38.1872C45.3448 38.0482 45.4828 37.9092 45.6207 37.7702C45.5517 37.4227 45.5517 37.1794 45.6207 37.0404C45.6897 36.8319 45.7586 36.6929 45.8276 36.6234C45.8965 36.4844 45.931 36.3454 45.931 36.2064C46 36.0674 45.9655 35.8589 45.8276 35.5809C46.5172 34.2603 47.0345 32.8702 47.3793 31.4106C47.7931 29.8816 48.2414 28.4567 48.7241 27.1362C48.8621 26.9277 48.8621 26.8234 48.7241 26.8234C48.5862 26.7539 48.5172 26.6149 48.5172 26.4064C49 25.2248 49.4138 24.0085 49.7586 22.7574C50.1034 21.4369 50.4483 20.1511 50.7931 18.9C48.7931 20.8461 46.7586 22.966 44.6897 25.2596C42.6207 27.5532 40.6897 29.9163 38.8965 32.3489C38.8276 32.3489 38.7931 32.3142 38.7931 32.2447C38.7931 32.1057 38.7241 32.0362 38.5862 32.0362C38.7241 32.5227 38.7241 32.7312 38.5862 32.6617C38.4483 32.5922 38.2759 32.7312 38.069 33.0787H37.7586C38.5172 31.4106 39.4828 29.9163 40.6552 28.5957C41.8966 27.2057 43.069 25.7808 44.1724 24.3213C45.8276 22.2362 47.5172 20.1163 49.2414 17.9617C50.9655 15.8071 52.7241 13.9305 54.5172 12.3319C55 12.4709 55.4138 12.5404 55.7586 12.5404C56.1034 12.5404 56.4138 12.7142 56.6897 13.0617C56.6897 13.3397 56.7241 13.5482 56.7931 13.6872C56.8621 13.7567 56.931 13.861 57 14C54.4483 20.1163 52.1034 26.4411 49.9655 32.9745C47.8966 39.4383 45.9655 46.1454 44.1724 53.0957C44.3793 53.2348 44.5862 53.3043 44.7931 53.3043C45.069 53.3043 45.3448 53.3043 45.6207 53.3043C45.8966 53.2347 46.1379 53.2347 46.3448 53.3043C46.5517 53.3043 46.6897 53.4433 46.7586 53.7213C45.931 53.7908 45.3103 53.756 44.8965 53.617C44.5517 53.478 44.2069 53.6865 43.8621 54.2426C44.069 54.4511 44.1379 54.6943 44.069 54.9723C44 55.1808 44.0345 55.4241 44.1724 55.7021C43.5517 55.5631 43.2069 55.9106 43.1379 56.7447C43.069 57.5092 42.931 58.2043 42.7241 58.8298C42.5172 58.6213 42.3448 58.517 42.2069 58.517C42.4828 59.7681 42.3793 61.1234 41.8965 62.583C41.4138 64.0425 41.0345 65.4674 40.7586 66.8574C40.6897 66.7184 40.6207 66.5099 40.5517 66.2319C40.5517 65.9539 40.4828 66.0582 40.3448 66.5447C40.4828 65.9886 40.5862 65.5369 40.6552 65.1894C40.7931 64.8418 40.6552 64.4596 40.2414 64.0426C40.5172 63.9035 40.6552 63.9035 40.6552 64.0426C40.6552 64.1121 40.6897 64.2163 40.7586 64.3553C41.0345 64.2163 41.1724 64.0078 41.1724 63.7298C41.2414 63.4518 41.2414 63.1738 41.1724 62.8957C41.1724 62.6177 41.1724 62.3745 41.1724 62.166C41.2414 61.9574 41.4138 61.8532 41.6897 61.8532C41.4828 61.5752 41.4138 61.3319 41.4828 61.1234C41.6207 60.8454 41.7586 60.5674 41.8965 60.2894C42.0345 60.0113 42.1379 59.7681 42.2069 59.5596C42.2759 59.2816 42.2069 59.0383 42 58.8298C42 58.4823 42.069 58.2738 42.2069 58.2043C42.4138 58.1348 42.5172 57.9957 42.5172 57.7872C42.5172 57.5787 42.4138 57.4745 42.2069 57.4745C42.069 57.4745 41.931 57.4397 41.7931 57.3702C42.2759 57.3702 42.5517 57.3007 42.6207 57.1617C42.7586 56.9532 42.8276 56.6057 42.8276 56.1191C42.6897 55.9801 42.4828 55.9454 42.2069 56.0149C42 56.0844 41.6897 56.1191 41.2759 56.1191C39.5517 61.9574 38.2414 68.039 37.3448 74.3638C36.4483 80.6887 35.6207 86.9787 34.8621 93.234C34.7931 90.8014 34.9655 88.195 35.3793 85.4149C35.8621 82.6348 36.2069 79.7504 36.4138 76.7617C37.0345 74.2596 37.5517 71.7574 37.9655 69.2553C38.3793 66.7532 38.7931 64.4248 39.2069 62.2702C38.7931 62.6177 38.5862 63.2085 38.5862 64.0426C38.5862 64.8766 38.3448 65.5021 37.8621 65.9192C38 64.3206 38.2759 62.7915 38.6897 61.3319C39.1724 59.8028 39.5517 58.239 39.8276 56.6404C39.7586 56.5014 39.6207 56.4667 39.4138 56.5362C39.2069 56.5362 39 56.5709 38.7931 56.6404C38.6552 56.6404 38.5172 56.6404 38.3793 56.6404C38.2414 56.5709 38.1724 56.3972 38.1724 56.1191C38.1034 56.4667 37.7586 56.7447 37.1379 56.9532C36.5172 57.1617 36.0345 57.1269 35.6897 56.8489C35.4138 57.1965 35.069 57.3702 34.6552 57.3702C34.2414 57.3702 33.8621 57.544 33.5172 57.8915C31.3103 58.239 29.2414 58.795 27.3103 59.5596C25.3793 60.2546 23.4138 60.8106 21.4138 61.2277C20.8621 61.7142 20.1379 62.0617 19.2414 62.2702C18.3448 62.4092 17.5172 62.6525 16.7586 63C16.4138 65.2936 15.9655 67.5872 15.4138 69.8809C14.931 72.105 14.7586 74.5028 14.8966 77.0745C15.4483 76.3794 15.8966 75.5801 16.2414 74.6766C16.6552 73.773 17.1034 73.0085 17.5862 72.383C17.3793 73.356 17.1034 74.2943 16.7586 75.1979C16.4138 76.1014 16.069 77.0397 15.7241 78.0128C15.3793 78.0128 15.069 78.0823 14.7931 78.2213C14.5172 78.2908 14.1724 78.395 13.7586 78.534C13.4138 78.395 13.1379 78.1865 12.931 77.9085C12.7931 77.6305 12.5862 77.422 12.3103 77.283C12.1724 75.0589 12.2759 72.8695 12.6207 70.7149C12.9655 68.4908 13.2759 66.3709 13.5517 64.3553C12.7931 64.4248 11.9655 64.6333 11.069 64.9809C10.1724 65.2589 9.24138 65.5369 8.27586 65.8149C7.31034 66.0234 6.27586 66.1972 5.17241 66.3362C4.13793 66.4057 3.06897 66.2667 1.96552 65.9192C1.89655 65.5716 1.68966 65.3284 1.34483 65.1894C1 65.0504 0.689655 64.9113 0.413793 64.7723C0.413793 64.4248 0.344828 64.1816 0.206897 64.0426C0.0689655 63.9035 0 63.6603 0 63.3128C1.03448 63.7298 2.17241 63.8688 3.41379 63.7298C4.72414 63.5908 6 63.3475 7.24138 63C8.55172 62.6525 9.82759 62.2702 11.069 61.8532C12.3103 61.3667 13.3793 61.0191 14.2759 60.8106C14.6207 59.6291 14.931 58.4475 15.2069 57.266C15.5517 56.0149 15.7931 54.8333 15.931 53.7213C15.7931 53.7213 15.7241 53.7908 15.7241 53.9298C15.7931 54.0688 15.7586 54.173 15.6207 54.2426C15.4828 54.1035 15.4828 53.9298 15.6207 53.7213C15.7586 53.4433 15.7586 53.1305 15.6207 52.783C15.8276 52.7135 15.8966 52.8177 15.8276 53.0957C15.7586 53.3043 15.7931 53.4085 15.931 53.4085C16.3448 52.505 16.6552 51.5319 16.8621 50.4894C17.1379 49.3773 17.3448 48.2652 17.4828 47.1532C18.2414 44.8596 18.8966 42.6007 19.4483 40.3766C20.069 38.083 20.6552 35.7894 21.2069 33.4957C21.2069 33.2872 21.1379 33.183 21 33.183C20.8621 33.183 20.8621 33.0092 21 32.6617C21.069 32.6617 21.2069 32.766 21.4138 32.9745C21.6207 32.8355 21.7241 32.6269 21.7241 32.3489C21.7241 32.0709 21.5517 31.9319 21.2069 31.9319C22.7931 26.8582 24.3103 21.7496 25.7586 16.6064C27.2069 11.3936 29 6.49362 31.1379 1.90638C31.7586 1.69787 32.069 1.2461 32.069 0.551062C32.6897 0.412056 33.1379 0.273049 33.4138 0.13404C33.6897 -0.0744683 34.1379 -0.0397149 34.7586 0.2383C34.7586 0.446808 34.7931 0.620567 34.8621 0.759576C34.931 0.898581 35.0345 1.07234 35.1724 1.28085C34.2759 4.40851 33.2069 7.32766 31.9655 10.0383C30.7931 12.7489 29.8276 15.7723 29.069 19.1085C27.2759 23.2092 25.7931 27.6227 24.6207 32.3489C23.4483 37.0057 22.1379 41.6277 20.6897 46.2149C20.3448 48.578 19.8276 50.8021 19.1379 52.8872C18.4483 54.9028 17.931 57.1269 17.5862 59.5596C18.9655 59.2121 20.3103 58.795 21.6207 58.3085C22.931 57.822 24.2069 57.544 25.4483 57.4745C25.2414 57.8915 24.8276 58.1348 24.2069 58.2043C23.6552 58.2738 23.069 58.4823 22.4483 58.8298C22.3103 59.0383 22.4138 59.1426 22.7586 59.1426C23.1724 59.073 23.3448 58.9688 23.2759 58.8298C23.4138 59.1078 23.2069 59.3858 22.6552 59.6638C22.1034 59.8723 21.6897 59.9071 21.4138 59.7681C21.4138 59.2121 21.6552 59.0383 22.1379 59.2468C22 58.8993 21.7931 58.8298 21.5172 59.0383C21.2414 59.1773 20.9655 59.2816 20.6897 59.3511C20.5517 59.5596 20.6207 59.6291 20.8965 59.5596C21.1724 59.4901 21.2414 59.6291 21.1034 59.9766C20.8966 60.0461 20.4828 60.1851 19.8621 60.3936C19.3103 60.5326 18.8621 60.7759 18.5172 61.1234ZM45.3103 46.6319C45.5172 46.2149 45.6207 45.7979 45.6207 45.3808C45.6207 44.8943 45.6552 44.5121 45.7241 44.234C45.931 44.095 46 44.1645 45.931 44.4426C45.8621 44.6511 45.931 44.7206 46.1379 44.6511C46.1379 43.956 46.2759 43.2957 46.5517 42.6702C46.8966 42.0447 46.8966 41.4191 46.5517 40.7936C46.6897 40.7241 46.7931 40.6894 46.8621 40.6894C46.7931 41.0369 46.8276 41.1411 46.9655 41.0021C47.1034 40.7936 47.069 40.6894 46.8621 40.6894C47.2069 39.5773 47.6552 38.3262 48.2069 36.9362C48.7586 35.5461 49.1034 34.156 49.2414 32.766C49.3103 32.6965 49.4828 32.6617 49.7586 32.6617C49.7586 31.7582 49.8965 30.8546 50.1724 29.9511C50.4483 28.978 50.7241 28.0397 51 27.1362C51.2759 26.2326 51.5172 25.3291 51.7241 24.4255C51.931 23.522 51.9655 22.6184 51.8276 21.7149C49.8276 26.7887 47.9655 31.8972 46.2414 37.0404C44.5862 42.1142 43.1034 47.605 41.7931 53.5128C42.1379 53.5128 42.4138 53.4433 42.6207 53.3043C42.8966 53.1652 43.1724 53.2 43.4483 53.4085C43.6552 52.5745 43.931 51.8099 44.2759 51.1149C44.6207 50.3504 44.6207 49.6553 44.2759 49.0298C44.4138 48.8908 44.4828 48.8908 44.4828 49.0298C44.5517 49.0993 44.6207 49.134 44.6897 49.134C44.8276 48.856 44.7931 48.7518 44.5862 48.8213C44.3793 48.8908 44.3103 48.8213 44.3793 48.6128C44.7241 48.6823 44.931 48.4738 45 47.9872C45.069 47.4312 45.1724 46.9794 45.3103 46.6319ZM52.2414 23.2787C52.2414 23.4872 52.2414 23.5915 52.2414 23.5915C52.2414 23.5915 52.2414 23.5567 52.2414 23.4872C52.2414 23.3482 52.2414 23.244 52.2414 23.1745C52.2414 23.105 52.2414 23.1397 52.2414 23.2787ZM44.6897 23.9043C44.8276 24.1128 44.8965 24.078 44.8965 23.8C44.9655 23.522 44.8965 23.5567 44.6897 23.9043ZM44.5862 24.3213C44.4483 24.3213 44.4138 24.356 44.4828 24.4255C44.5517 24.495 44.5862 24.4603 44.5862 24.3213C44.7241 24.2518 44.7586 24.217 44.6897 24.217C44.6207 24.1475 44.5862 24.1823 44.5862 24.3213ZM43.2414 25.7809C43.3793 25.9894 43.4483 25.9894 43.4483 25.7809C43.5172 25.5028 43.4483 25.5028 43.2414 25.7809ZM48.931 26.5106C49.2069 26.5106 49.3448 26.4064 49.3448 26.1979C49.1379 26.1979 49 26.3021 48.931 26.5106ZM42.4138 27.2404C42.4138 27.1709 42.4138 27.1014 42.4138 27.0319C42.4828 26.9624 42.5172 26.9972 42.5172 27.1362C42.5172 26.8582 42.4138 26.7539 42.2069 26.8234C42.3448 26.8929 42.3793 26.9624 42.3103 27.0319C42.2414 27.1014 42.2759 27.1709 42.4138 27.2404ZM40.7586 29.117C40.8965 29.117 40.931 29.117 40.8621 29.117C40.7931 29.0475 40.7586 29.0475 40.7586 29.117ZM21.931 30.5766C22.069 30.5766 22.1034 30.5766 22.0345 30.5766C21.9655 30.5071 21.931 30.5071 21.931 30.5766ZM22.5517 32.3489H22.4483C22.5172 32.4879 22.4483 32.6617 22.2414 32.8702C22.1034 33.0092 22.1724 33.1482 22.4483 33.2872C22.4483 33.0092 22.4828 32.8355 22.5517 32.766C22.6207 32.6965 22.6207 32.5574 22.5517 32.3489C22.6897 32.2794 22.7241 32.2447 22.6552 32.2447C22.5862 32.1752 22.5517 32.2099 22.5517 32.3489ZM22.8621 33.0787C23.069 33.2177 23.1724 33.1482 23.1724 32.8702C23.1724 32.5227 23.1034 32.4184 22.9655 32.5574C22.9655 32.6269 22.931 32.6965 22.8621 32.766C22.8621 32.8355 22.8621 32.9397 22.8621 33.0787ZM21.1034 41.0021C21.4483 40.6546 21.6897 40.2028 21.8276 39.6468C21.9655 39.0213 21.8621 38.5 21.5172 38.083C21.7241 37.944 21.7586 37.8397 21.6207 37.7702C21.4828 37.6312 21.4483 37.7355 21.5172 38.083C21.4483 37.944 21.3793 37.9787 21.3103 38.1872C21.2414 38.3957 21.1724 38.3957 21.1034 38.1872C21.3103 37.4227 21.5172 36.6929 21.7241 35.9979C21.931 35.2333 22.1034 34.4688 22.2414 33.7043C20.5862 37.7355 19.2414 42.0794 18.2069 46.7362C17.1724 51.3234 16.069 55.9106 14.8966 60.4979C16.1379 60.2894 16.8966 59.6638 17.1724 58.6213C17.1034 57.4397 17.3103 56.1191 17.7931 54.6596C18.2759 53.1305 18.6897 51.7752 19.0345 50.5936C19.1724 48.9255 19.5172 47.327 20.069 45.7979C20.6207 44.2688 20.9655 42.6702 21.1034 41.0021ZM22.4483 37.1447C22.7241 37.0752 22.8621 36.7972 22.8621 36.3106C22.8621 35.8241 22.7586 35.5461 22.5517 35.4766C22.4828 35.7546 22.4828 35.9979 22.5517 36.2064C22.6897 36.4149 22.6552 36.7277 22.4483 37.1447ZM43.8621 42.566C44 42.9135 44.069 42.9482 44.069 42.6702C44.069 42.3227 44 42.2879 43.8621 42.566ZM42.931 54.2426C42.931 53.8255 42.7586 53.6865 42.4138 53.8255C42.1379 53.895 41.8276 53.9298 41.4828 53.9298C41.4138 54.2773 41.3793 54.5901 41.3793 54.8681C41.4483 55.1461 41.4483 55.4241 41.3793 55.7021C41.7241 55.6326 41.9655 55.4589 42.1034 55.1809C42.2414 54.8333 42.5862 54.7291 43.1379 54.8681C43.2069 54.7291 43.2759 54.5206 43.3448 54.2426C43.4828 53.9645 43.4483 53.7908 43.2414 53.7213C43.4483 53.9298 43.3448 54.1035 42.931 54.2426ZM42.7241 55.3894C42.5862 55.6674 42.6207 55.7021 42.8276 55.4936C43.0345 55.2156 43 55.1809 42.7241 55.3894ZM39.3103 56.0149C39.5862 56.0149 39.7241 56.0496 39.7241 56.1191C39.7931 56.1887 39.8621 56.1191 39.931 55.9106C39.7931 55.5631 39.5862 55.5979 39.3103 56.0149ZM38.5862 56.1191C38.7241 56.1191 38.7586 56.1191 38.6897 56.1191C38.6207 56.0496 38.5862 56.0496 38.5862 56.1191ZM36.4138 56.7447H36.7241C36.7241 56.6057 36.7586 56.5362 36.8276 56.5362C36.9655 56.4667 37 56.3972 36.931 56.3277H36.4138V56.7447ZM40.2414 58.3085C40.2414 57.8915 40.2759 57.6135 40.3448 57.4745C40.4828 57.266 40.5517 56.9184 40.5517 56.4319H39.931C40 56.7794 40 57.1617 39.931 57.5787C39.931 57.9262 40.0345 58.1695 40.2414 58.3085ZM38.8965 62.166C39.2414 61.8184 39.5172 61.2277 39.7241 60.3936C40 59.5596 40.0345 58.9688 39.8276 58.6213C39.4828 59.8028 39.1724 60.9844 38.8965 62.166ZM19.3448 60.2894C19.4828 60.0113 19.6897 59.9071 19.9655 59.9766C20.3103 59.9766 20.4483 59.8376 20.3793 59.5596C20.2414 59.6291 20 59.6986 19.6552 59.7681C19.3103 59.8376 19.2069 60.0113 19.3448 60.2894ZM17.7931 61.4362C17.8621 61.4362 17.8621 61.4014 17.7931 61.3319C17.7931 61.2624 17.7931 61.2972 17.7931 61.4362ZM15.7241 63.7298C15.931 63.8688 16.0345 63.7993 16.0345 63.5213C16.0345 63.2433 15.931 63.1738 15.7241 63.3128V63.7298ZM15.6207 63.7298C15.4828 63.4518 15.2414 63.417 14.8966 63.6255C14.6207 63.7645 14.3793 63.9035 14.1724 64.0426C13.8276 65.2241 13.5862 66.4752 13.4483 67.7957C13.3103 69.0468 13.069 70.2631 12.7241 71.4447C12.8621 72.2787 12.8276 73.3213 12.6207 74.5723C12.4138 75.8234 12.6207 76.8312 13.2414 77.5957C13.2414 75.3716 13.4483 73.078 13.8621 70.7149C14.2759 68.2823 14.8621 65.9539 15.6207 63.7298ZM40.7586 64.6681C40.8965 64.6681 40.931 64.6333 40.8621 64.5638C40.7931 64.4943 40.7586 64.5291 40.7586 64.6681ZM14.6897 70.6106C14.8276 70.9582 14.8966 70.9582 14.8966 70.6106C14.8966 70.2631 14.8276 70.2631 14.6897 70.6106ZM48.3103 27.2404C48.2414 26.8929 48.2759 26.7887 48.4138 26.9277C48.5517 27.0667 48.5172 27.1709 48.3103 27.2404ZM48.3103 27.2404C48.4483 27.4489 48.4483 27.5879 48.3103 27.6574C48.2414 27.727 48.2069 27.9355 48.2069 28.283C48 28.144 47.9655 27.9702 48.1034 27.7617C48.2414 27.5532 48.2759 27.3794 48.2069 27.2404H48.3103ZM47.7931 28.7C47.8621 28.561 47.8965 28.5262 47.8965 28.5957C47.8965 28.5957 47.8965 28.6305 47.8965 28.7C47.8965 28.7695 47.8965 28.839 47.8965 28.9085C47.8965 28.9085 47.8621 28.839 47.7931 28.7ZM47.4828 29.6383C47.4828 29.4993 47.4828 29.4645 47.4828 29.534C47.5517 29.6035 47.5517 29.6383 47.4828 29.6383ZM49.4483 32.0362C49.5862 31.7582 49.6552 31.7929 49.6552 32.1404C49.6552 32.4184 49.5862 32.3837 49.4483 32.0362ZM46.3448 33.3915C46.3448 33.183 46.3793 33.044 46.4483 32.9745C46.5172 32.905 46.5172 32.8007 46.4483 32.6617C46.6552 32.6617 46.7241 32.766 46.6552 32.9745C46.5862 33.183 46.4828 33.322 46.3448 33.3915ZM37.7586 33.0787C37.6207 33.8433 37.3448 34.4688 36.931 34.9553C36.5172 35.3723 36.1724 35.9631 35.8966 36.7277C35.6897 36.1021 35.8621 35.4766 36.4138 34.8511C36.9655 34.2255 37.4138 33.6348 37.7586 33.0787ZM46.3448 33.3915C46.3448 33.461 46.3448 33.5653 46.3448 33.7043C46.3448 33.7738 46.2759 33.878 46.1379 34.017C46.2759 33.878 46.3103 33.739 46.2414 33.6C46.1724 33.461 46.2069 33.3915 46.3448 33.3915ZM20.7931 33.7043C20.8621 33.5653 20.8965 33.5305 20.8965 33.6C20.8965 33.6 20.8965 33.6695 20.8965 33.8085C20.8965 33.878 20.8621 33.9475 20.7931 34.017C20.7931 34.017 20.7931 33.9128 20.7931 33.7043ZM46.1379 34.017C46.1379 34.3645 46.069 34.6773 45.931 34.9553C45.8621 35.2333 45.7586 35.5461 45.6207 35.8936C45.4828 35.6851 45.4828 35.3723 45.6207 34.9553C45.8276 34.4688 46 34.156 46.1379 34.017ZM20.2759 35.5809C20.4828 35.6504 20.5172 35.8241 20.3793 36.1021C20.3103 36.3106 20.2069 36.4844 20.069 36.6234C19.8621 36.4844 19.8621 36.3454 20.069 36.2064C20.3448 35.9979 20.4138 35.7894 20.2759 35.5809ZM45.3103 36.3106C45.3103 36.1716 45.3103 36.1369 45.3103 36.2064C45.3103 36.2064 45.3103 36.2759 45.3103 36.4149C45.3103 36.4844 45.3103 36.5539 45.3103 36.6234C45.3103 36.6234 45.3103 36.5191 45.3103 36.3106ZM19.7586 37.1447C19.8965 37.1447 19.931 37.3184 19.8621 37.666C19.8621 38.0135 19.7586 38.1872 19.5517 38.1872C19.5517 37.9092 19.5862 37.7007 19.6552 37.5617C19.7241 37.4227 19.7586 37.2837 19.7586 37.1447ZM45 37.4574C45.1379 37.1794 45.2069 37.2142 45.2069 37.5617C45.2069 37.8397 45.1379 37.805 45 37.4574ZM34.7586 37.7702C34.7586 37.6312 34.7931 37.5965 34.8621 37.666C34.931 37.666 34.8965 37.7007 34.7586 37.7702ZM34.7586 37.7702V37.9787C34.7586 38.0482 34.6897 38.083 34.5517 38.083C34.6897 37.944 34.7241 37.8745 34.6552 37.8745C34.5862 37.805 34.6207 37.7702 34.7586 37.7702ZM44.8965 38.083C44.8965 37.944 44.8965 37.9092 44.8965 37.9787C44.9655 38.0482 44.9655 38.083 44.8965 38.083ZM44.8965 38.5C44.7586 38.5 44.7241 38.4652 44.7931 38.3957C44.8621 38.3262 44.8965 38.361 44.8965 38.5ZM21 38.5C21.2759 38.917 21.2759 39.334 21 39.7511C20.7931 40.1681 20.6207 40.5156 20.4828 40.7936C20.4138 40.3766 20.4828 39.9943 20.6897 39.6468C20.9655 39.2298 21.069 38.8475 21 38.5ZM21.4138 39.1255C21.4138 38.9865 21.4138 38.9518 21.4138 39.0213C21.4828 39.0908 21.4828 39.1255 21.4138 39.1255ZM44.3793 39.334C44.4483 39.195 44.4828 39.1603 44.4828 39.2298C44.4828 39.2993 44.4828 39.4035 44.4828 39.5426C44.4828 39.6121 44.4483 39.6468 44.3793 39.6468C44.3793 39.6468 44.3793 39.5426 44.3793 39.334ZM19.0345 39.6468C19.1724 39.6468 19.2414 39.8206 19.2414 40.1681C19.2414 40.4461 19.1724 40.6199 19.0345 40.6894C18.8966 40.5504 18.8621 40.3766 18.931 40.1681C19 39.9596 19.0345 39.7858 19.0345 39.6468ZM21.1034 41.0021C20.8966 40.8631 20.8621 40.7589 21 40.6894C21.1379 40.5504 21.1724 40.6546 21.1034 41.0021ZM18.8276 41.0021C18.8276 40.8631 18.8276 40.8284 18.8276 40.8979C18.8966 40.9674 18.8966 41.0021 18.8276 41.0021ZM32.2759 42.0447C32.4138 41.6972 32.4828 41.6972 32.4828 42.0447C32.4828 42.3227 32.4138 42.3227 32.2759 42.0447ZM19.6552 43.2957C19.7931 43.0177 19.8621 43.0525 19.8621 43.4C19.8621 43.678 19.7931 43.6433 19.6552 43.2957ZM18.1034 43.5043C18.4483 43.5738 18.5172 43.7128 18.3103 43.9213C18.1724 44.0603 18.1034 44.234 18.1034 44.4426C17.9655 44.3035 17.931 44.1298 18 43.9213C18.069 43.7128 18.1034 43.5738 18.1034 43.5043ZM19.0345 45.6936C19.1724 45.3461 19.2414 45.3461 19.2414 45.6936C19.2414 45.9716 19.1724 45.9716 19.0345 45.6936ZM17.4828 45.9021C17.6207 45.6241 17.6897 45.6589 17.6897 46.0064C17.6897 46.2844 17.6207 46.2496 17.4828 45.9021ZM45.3103 46.6319C45.1724 46.6319 45.1379 46.5972 45.2069 46.5277C45.2759 46.4582 45.3103 46.4929 45.3103 46.6319ZM17.4828 47.1532C17.2759 47.0142 17.2414 46.9099 17.3793 46.8404C17.5172 46.7014 17.5517 46.8057 17.4828 47.1532ZM18.3103 47.883C18.5172 47.744 18.6207 47.8135 18.6207 48.0915C18.6207 48.022 18.5862 48.022 18.5172 48.0915C18.5172 48.0915 18.5172 48.161 18.5172 48.3C18.3793 48.161 18.3448 48.0915 18.4138 48.0915C18.4828 48.022 18.4483 47.9525 18.3103 47.883ZM41.6897 49.134C41.8966 49.273 41.931 49.4468 41.7931 49.6553C41.7241 49.8638 41.6897 50.0376 41.6897 50.1766C41.5517 50.1071 41.4828 49.9333 41.4828 49.6553C41.4828 49.3078 41.5517 49.134 41.6897 49.134ZM16.4483 49.8638C16.5862 49.8638 16.6552 50.0376 16.6552 50.3851C16.7241 50.7326 16.6207 50.8716 16.3448 50.8021C16.3448 50.5241 16.3793 50.3504 16.4483 50.2808C16.5862 50.2113 16.5862 50.0723 16.4483 49.8638ZM41.2759 50.9064C41.2759 50.7674 41.2759 50.6631 41.2759 50.5936C41.3448 50.5241 41.3793 50.4199 41.3793 50.2808C41.5862 50.2808 41.6552 50.3851 41.5862 50.5936C41.5172 50.7326 41.4483 50.8369 41.3793 50.9064H41.2759ZM41.2759 50.9064C41.3448 51.2539 41.2759 51.6362 41.069 52.0532H40.9655C40.9655 51.7752 41 51.5667 41.069 51.4277C41.2069 51.2887 41.2069 51.1149 41.069 50.9064H41.2759ZM43.4483 51.3234C43.6552 51.3234 43.6552 51.3929 43.4483 51.5319C43.3103 51.6709 43.3103 51.8099 43.4483 51.9489C43.3793 51.9489 43.3448 51.8099 43.3448 51.5319C43.3448 51.4624 43.3793 51.3929 43.4483 51.3234ZM40.9655 52.0532C41.1034 52.1922 41.1379 52.4355 41.069 52.783C41 53.061 40.8965 53.2695 40.7586 53.4085C40.5517 53.2695 40.5172 53.061 40.6552 52.783C40.8621 52.505 40.8965 52.2617 40.7586 52.0532H40.9655ZM17.7931 52.783C17.8621 52.644 17.931 52.6092 18 52.6787C18.069 52.6787 18.1034 52.7135 18.1034 52.783C18.1034 52.922 18.069 52.9567 18 52.8872C17.931 52.8177 17.8621 52.783 17.7931 52.783ZM45 55.1809H44.6897C44.8965 55.3199 45 55.3199 45 55.1809C45.2069 55.0418 45.3448 55.0418 45.4138 55.1809C45.4828 55.2504 45.5862 55.2851 45.7241 55.2851C45.7241 55.0071 45.6207 54.8681 45.4138 54.8681C45.7586 54.6596 46.0345 54.5901 46.2414 54.6596C46.5172 54.6596 46.8276 54.6248 47.1724 54.5553C47.1724 54.9028 47.069 55.0071 46.8621 54.8681C46.6552 54.7291 46.3793 54.7291 46.0345 54.8681C46.5862 55.2851 47.2759 55.3894 48.1034 55.1809C48.931 54.9028 49.7241 54.9723 50.4828 55.3894C50.6207 55.1809 50.5862 55.0418 50.3793 54.9723C50.1724 54.9028 49.9655 54.9028 49.7586 54.9723C49.9655 54.6943 49.931 54.4858 49.6552 54.3468C49.4483 54.1383 49.1724 53.9993 48.8276 53.9298C48.4828 53.8603 48.1034 53.7908 47.6897 53.7213C47.2759 53.6518 47 53.5823 46.8621 53.5128C48.1034 53.2347 49.2414 53.3738 50.2759 53.9298C51.3103 54.4858 52.069 55.2851 52.5517 56.3277C52.4138 56.3277 52.3448 56.3972 52.3448 56.5362C52.3448 56.6057 52.3103 56.6752 52.2414 56.7447C51.8276 56.7447 51.5517 56.7447 51.4138 56.7447C51.2759 56.7447 50.9655 56.8489 50.4828 57.0574C50.6207 56.8489 50.7241 56.6752 50.7931 56.5362C50.8621 56.3972 50.8621 56.2234 50.7931 56.0149C49.6897 55.5979 48.6552 55.4589 47.6897 55.5979C46.7241 55.6674 45.6897 55.7021 44.5862 55.7021C44.4483 55.4936 44.3793 55.3546 44.3793 55.2851C44.4483 55.1461 44.4138 54.9376 44.2759 54.6596C44.4828 54.6596 44.6207 54.6248 44.6897 54.5553C44.7586 54.4858 44.8965 54.4858 45.1034 54.5553C45.1034 54.8333 45.069 55.0418 45 55.1809ZM38.1724 54.2426C38.0345 54.3816 37.7586 54.5206 37.3448 54.6596C36.931 54.7986 36.4828 54.7986 36 54.6596C36.3448 54.5206 36.6897 54.4163 37.0345 54.3468C37.3793 54.2078 37.7586 54.173 38.1724 54.2426ZM15.3103 54.4511C15.5172 54.5901 15.5517 54.7986 15.4138 55.0766C15.3448 55.2851 15.2759 55.4589 15.2069 55.5979C14.931 55.3894 14.8966 55.1808 15.1034 54.9723C15.3103 54.7638 15.3793 54.5901 15.3103 54.4511ZM42.5172 54.5553C42.5172 54.4858 42.5517 54.4858 42.6207 54.5553C42.6897 54.5553 42.6552 54.5553 42.5172 54.5553ZM48 54.4511C48.1379 54.5901 48.1379 54.6943 48 54.7638C47.8621 54.8333 47.6897 54.8681 47.4828 54.8681C47.4828 54.6596 47.5172 54.5206 47.5862 54.4511C47.7241 54.3121 47.8621 54.3121 48 54.4511ZM35.6897 54.5553C35.8276 54.7638 35.7931 54.9028 35.5862 54.9723C35.4483 54.9723 35.2414 55.0071 34.9655 55.0766C34.6897 55.0766 34.4138 55.1113 34.1379 55.1809C33.931 55.2504 33.8276 55.4241 33.8276 55.7021C33.5517 55.4936 33.3448 55.4936 33.2069 55.7021C33.069 55.9106 32.8966 55.8759 32.6897 55.5979C32.5517 55.5979 32.4483 55.6674 32.3793 55.8064C32.3103 55.9454 32.2069 56.0496 32.069 56.1191C31.931 55.8411 32 55.6326 32.2759 55.4936C32.5517 55.2851 32.8965 55.1461 33.3103 55.0766C33.7241 54.9376 34.1724 54.8681 34.6552 54.8681C35.1379 54.7986 35.4828 54.6943 35.6897 54.5553ZM49.2414 54.6596C49.1034 54.9376 48.9655 54.9376 48.8276 54.6596C48.7586 54.3816 48.8965 54.3816 49.2414 54.6596ZM49.3448 54.8681C49.4138 54.7291 49.4828 54.6596 49.5517 54.6596C49.6207 54.6596 49.6552 54.7291 49.6552 54.8681C49.6552 54.8681 49.5517 54.8681 49.3448 54.8681ZM31.6552 55.5979C31.6552 55.8064 31.4828 55.9801 31.1379 56.1191C30.7931 56.1887 30.5862 56.0496 30.5172 55.7021C30.8621 55.7021 31.069 55.6674 31.1379 55.5979C31.2759 55.4589 31.4483 55.4589 31.6552 55.5979ZM29.8966 56.0149C30.0345 56.2234 29.8966 56.3972 29.4828 56.5362C29.1379 56.6057 28.8966 56.5709 28.7586 56.4319C28.8966 56.1539 29.069 56.0496 29.2759 56.1191C29.5517 56.1191 29.7586 56.0844 29.8966 56.0149ZM17.069 56.3277C17.2069 55.9801 17.2759 55.9801 17.2759 56.3277C17.2759 56.6057 17.2069 56.6057 17.069 56.3277ZM28.3448 56.3277C28.5517 56.3277 28.6552 56.3972 28.6552 56.5362C28.6552 56.6057 28.5862 56.7099 28.4483 56.8489C28.1724 56.7099 28.1379 56.5362 28.3448 56.3277ZM26.5862 57.7872C26.3793 57.6482 26.2414 57.544 26.1724 57.4745C26.1034 57.3355 25.8966 57.3355 25.5517 57.4745C25.8276 57.1269 26.2414 56.9184 26.7931 56.8489C27.4138 56.7099 27.8276 56.6404 28.0345 56.6404C28.1724 56.9879 28.0345 57.2312 27.6207 57.3702C27.2069 57.5092 26.931 57.405 26.7931 57.0574C26.6552 57.0574 26.5517 57.1617 26.4828 57.3702C26.5517 57.5092 26.6207 57.5787 26.6897 57.5787C26.7586 57.5092 26.7241 57.5787 26.5862 57.7872ZM14.6897 57.0574C14.9655 57.1269 15 57.2312 14.7931 57.3702C14.6552 57.5092 14.6207 57.683 14.6897 57.8915C14.6207 57.8915 14.5862 57.7525 14.5862 57.4745C14.5862 57.3355 14.6207 57.1964 14.6897 57.0574ZM16.1379 57.4745C16.1379 57.405 16.1724 57.405 16.2414 57.4745C16.3103 57.4745 16.2759 57.4745 16.1379 57.4745ZM16.6552 57.5787C16.7241 57.4397 16.7586 57.405 16.7586 57.4745C16.7586 57.4745 16.7586 57.5092 16.7586 57.5787C16.7586 57.6482 16.7586 57.7177 16.7586 57.7872C16.7586 57.7872 16.7241 57.7177 16.6552 57.5787ZM26.5862 57.7872C26.7931 57.7872 26.931 57.7525 27 57.683C27.069 57.544 27.1724 57.5092 27.3103 57.5787C27.3103 58.0653 27.1034 58.3085 26.6897 58.3085C26.2759 58.3085 25.8966 58.378 25.5517 58.517C25.5517 58.1695 25.7241 58.0305 26.069 58.1C26.4138 58.1 26.5862 57.9957 26.5862 57.7872ZM24.1034 58.517C24.3103 58.8645 24.1724 59.0383 23.6897 59.0383C23.8276 58.8993 23.8965 58.7603 23.8965 58.6213C23.8965 58.4128 23.9655 58.378 24.1034 58.517ZM16.4483 58.8298C16.4483 58.6908 16.4828 58.656 16.5517 58.7255C16.6207 58.795 16.5862 58.8298 16.4483 58.8298ZM16.3448 58.934C16.4828 58.8645 16.5517 58.9688 16.5517 59.2468C16.5517 59.4553 16.4138 59.4901 16.1379 59.3511V59.0383H16.3448V58.934ZM41.4828 59.0383C41.8966 59.0383 42 59.2468 41.7931 59.6638C41.5862 59.4553 41.4828 59.2468 41.4828 59.0383ZM14.1724 59.3511C14.3793 59.3511 14.4483 59.4553 14.3793 59.6638C14.3103 59.8723 14.2414 60.0113 14.1724 60.0809C13.9655 60.0113 13.931 59.9071 14.069 59.7681C14.2069 59.6291 14.2414 59.4901 14.1724 59.3511ZM41.069 59.9766C40.8621 59.6291 40.8621 59.4206 41.069 59.3511C41.2759 59.2121 41.2759 59.4206 41.069 59.9766ZM41.4828 59.9766C41.5517 59.8376 41.5862 59.8028 41.5862 59.8723C41.5862 59.8723 41.5862 59.9418 41.5862 60.0809C41.5862 60.1504 41.5517 60.2199 41.4828 60.2894C41.4828 60.2894 41.4828 60.1851 41.4828 59.9766ZM40.6552 61.0191H41.069C41.069 61.0887 41.0345 61.1582 40.9655 61.2277C40.9655 61.2972 40.9655 61.4014 40.9655 61.5404C40.7586 61.4709 40.6552 61.2972 40.6552 61.0191ZM40.5517 61.8532C40.7586 61.8532 40.8276 61.9922 40.7586 62.2702C40.6897 62.5482 40.6552 62.7567 40.6552 62.8957C40.4483 62.7567 40.3793 62.583 40.4483 62.3745C40.5172 62.166 40.5517 61.9922 40.5517 61.8532ZM15.2069 64.0426C15.2759 63.9035 15.3103 63.8688 15.3103 63.9383C15.3103 63.9383 15.3103 63.973 15.3103 64.0426C15.3103 64.1121 15.3103 64.1816 15.3103 64.2511C15.3103 64.2511 15.2759 64.1816 15.2069 64.0426ZM39.931 64.7723C40.1379 64.4943 40.2414 64.5291 40.2414 64.8766C40.2414 65.1546 40.1379 65.1199 39.931 64.7723ZM39.8276 65.1894C40.2414 65.1199 40.3793 65.3284 40.2414 65.8149C39.9655 65.8149 39.8276 65.6064 39.8276 65.1894ZM12.7241 66.3362C12.8621 66.2667 12.931 66.3709 12.931 66.6489C12.931 66.8574 12.7931 66.9269 12.5172 66.8574V66.5447C12.6552 66.5447 12.7241 66.5099 12.7241 66.4404V66.3362ZM37.0345 70.7149C37.0345 70.0894 37.1379 69.3943 37.3448 68.6298C37.5517 67.7957 37.6897 67.0312 37.7586 66.3362C37.9655 67.0312 37.931 67.7957 37.6552 68.6298C37.4483 69.3943 37.2414 70.0894 37.0345 70.7149ZM39.6207 66.5447H39.931V67.066H39.6207V66.5447ZM39.8276 69.9851C39.8965 69.9851 39.931 69.8461 39.931 69.5681C40 69.5681 39.9655 69.7071 39.8276 69.9851C39.6897 69.9156 39.5862 69.9504 39.5172 70.0894C39.4483 70.1589 39.3103 70.1936 39.1034 70.1936C39.1034 69.9851 39.1034 69.8461 39.1034 69.7766C39.1724 69.6376 39.2069 69.5333 39.2069 69.4638C39.3448 69.4638 39.3793 69.4986 39.3103 69.5681C39.3103 69.6376 39.3103 69.7418 39.3103 69.8809C39.5862 69.8113 39.7241 69.6723 39.7241 69.4638C39.7241 69.1858 39.8276 69.0468 40.0345 69.0468C39.9655 68.7688 39.7586 68.595 39.4138 68.5255C39.1379 68.3865 39.1034 68.1433 39.3103 67.7957C39.6552 67.7957 39.8621 67.9 39.931 68.1085C40 68.317 40.0345 68.5255 40.0345 68.734C40.1724 68.5255 40.2414 68.317 40.2414 68.1085C40.3103 67.8305 40.3448 67.5872 40.3448 67.3787C40.2759 67.3787 40.2414 67.4482 40.2414 67.5872C40.2414 67.6567 40.1379 67.6915 39.931 67.6915C39.931 67.344 40 67.1355 40.1379 67.066C40.2759 66.9965 40.3103 66.8574 40.2414 66.6489C40.7931 67.1355 40.931 67.8652 40.6552 68.8383C40.4483 69.7418 40.1724 70.3674 39.8276 70.7149V69.9851ZM12.5172 67.066C12.7931 67.066 12.8966 67.1702 12.8276 67.3787C12.7586 67.5177 12.6552 67.622 12.5172 67.6915C12.4483 67.6915 12.4138 67.5872 12.4138 67.3787C12.4138 67.3092 12.4483 67.205 12.5172 67.066ZM12.3103 68.1085C12.3793 67.9695 12.4138 67.9348 12.4138 68.0042C12.4828 68.0042 12.5172 68.039 12.5172 68.1085C12.5172 68.2475 12.4828 68.2823 12.4138 68.2128C12.4138 68.1433 12.3793 68.1085 12.3103 68.1085ZM12.3103 68.734C12.3103 68.595 12.3103 68.5603 12.3103 68.6298C12.3793 68.6993 12.3793 68.734 12.3103 68.734ZM19.2414 69.0468C19.2414 68.9078 19.2414 68.873 19.2414 68.9426C19.3103 69.0121 19.3103 69.0468 19.2414 69.0468ZM18.8276 69.9851C18.6897 69.6376 18.6897 69.5333 18.8276 69.6723C19.0345 69.8113 19.0345 69.9156 18.8276 69.9851ZM18.8276 69.9851C18.8276 70.1241 18.7931 70.1589 18.7241 70.0894C18.6552 70.0199 18.6897 69.9851 18.8276 69.9851ZM38.5862 69.9851C39 70.1241 39.2069 70.3674 39.2069 70.7149C39.2759 70.9929 39.2414 71.3057 39.1034 71.6532C39.0345 72.0007 38.9655 72.3482 38.8965 72.6957C38.8276 73.0433 38.8965 73.3213 39.1034 73.5298C39.3103 73.4603 39.4138 73.2865 39.4138 73.0085C39.4828 72.7305 39.5172 72.4525 39.5172 72.1745C39.5172 71.827 39.5172 71.5489 39.5172 71.3404C39.5862 71.0624 39.7241 70.9234 39.931 70.9234C39.7931 72.4525 39.6207 73.8426 39.4138 75.0936C39.2069 76.2752 39 77.6652 38.7931 79.2638C38.5862 79.3333 38.4828 79.2638 38.4828 79.0553C38.5517 78.8468 38.5517 78.7078 38.4828 78.6383C38.3448 78.6383 38.2069 78.7426 38.069 78.9511C37.931 79.0901 37.7931 79.0901 37.6552 78.9511C38 78.395 38.1034 77.9085 37.9655 77.4915C37.8276 77.005 37.8621 76.4142 38.069 75.7191C38.2069 75.5801 38.2759 75.5454 38.2759 75.6149C38.3448 75.6844 38.4483 75.7539 38.5862 75.8234C38.5172 75.5454 38.4828 75.4064 38.4828 75.4064C38.5517 75.3369 38.5862 75.1979 38.5862 74.9894C38.7241 74.9894 38.7931 75.1979 38.7931 75.6149C39 75.2674 39.1034 74.9894 39.1034 74.7808C39.1034 74.5028 39.0345 74.1901 38.8965 73.8426C38.6897 73.7035 38.6207 73.7383 38.6897 73.9468C38.7586 74.1553 38.6552 74.2248 38.3793 74.1553C38.4483 73.5993 38.5172 73.1475 38.5862 72.8C38.6552 72.4525 38.5862 72.105 38.3793 71.7574C38.7241 71.8965 38.8965 71.7227 38.8965 71.2362C38.9655 70.6801 38.8621 70.2631 38.5862 69.9851ZM38.3793 76.3447C38.2414 76.5532 38.1724 76.8312 38.1724 77.1787C38.2414 77.4567 38.4483 77.5957 38.7931 77.5957C38.6552 77.3177 38.6552 77.0745 38.7931 76.866C38.931 76.5879 38.8621 76.3447 38.5862 76.1362C38.5862 76.3447 38.5172 76.4142 38.3793 76.3447ZM38.4828 77.9085C38.2759 78.117 38.3103 78.2213 38.5862 78.2213C38.8621 78.2213 38.8276 78.117 38.4828 77.9085ZM18.3103 70.5064C18.5862 70.3674 18.7241 70.4369 18.7241 70.7149C18.7241 70.9234 18.5862 70.9929 18.3103 70.9234V70.5064ZM12 70.9234C12 70.7844 12 70.7496 12 70.8191C12.069 70.8886 12.069 70.9234 12 70.9234ZM37.0345 70.7149C36.6207 74.6766 36.1034 78.6035 35.4828 82.4957C34.931 86.3879 34.4828 90.4539 34.1379 94.6936C34.2069 90.8014 34.5172 86.7702 35.069 82.6C35.6207 78.3603 36.2759 74.3986 37.0345 70.7149ZM18.1034 71.0277C18.2414 70.9582 18.3103 71.0624 18.3103 71.3404C18.3103 71.2709 18.2759 71.2709 18.2069 71.3404C18.2069 71.3404 18.2069 71.3752 18.2069 71.4447C18.1379 71.3752 18.1034 71.3404 18.1034 71.3404C18.1724 71.2709 18.1724 71.1667 18.1034 71.0277ZM17.5862 72.383C17.7241 72.244 17.7586 72.105 17.6897 71.966C17.6207 71.7574 17.6897 71.6879 17.8966 71.7574C17.8966 72.0355 17.8621 72.244 17.7931 72.383H17.5862ZM11.6897 74.8851C11.6897 74.7461 11.6897 74.7113 11.6897 74.7808C11.7586 74.8503 11.7586 74.8851 11.6897 74.8851ZM35.5862 106.996C35.5862 106.787 35.5517 106.683 35.4828 106.683C35.5517 106.405 35.6897 106.405 35.8966 106.683C36.0345 105.64 36.069 104.598 36 103.555C36 102.582 35.9655 101.366 35.8966 99.9064C35.5517 100.045 35.4828 100.289 35.6897 100.636C35.8965 100.984 35.7586 101.227 35.2759 101.366C35.2759 100.949 35.3103 100.601 35.3793 100.323C35.5172 100.115 35.5517 99.8369 35.4828 99.4894C35.6207 99.4199 35.6897 99.4199 35.6897 99.4894C35.6897 99.6284 35.7586 99.7326 35.8966 99.8021C35.8276 99.5936 35.7931 99.3503 35.7931 99.0723C35.8621 98.7943 35.8966 98.4816 35.8966 98.134C35.9655 97.856 36 97.578 36 97.3C36 97.0915 35.8965 96.9177 35.6897 96.7787C35.5517 96.7787 35.5172 96.883 35.5862 97.0915C35.6552 97.3 35.6552 97.4738 35.5862 97.6128C35.4483 97.2653 35.4138 96.883 35.4828 96.466C35.5517 96.1184 35.5862 95.8057 35.5862 95.5277C35.7931 95.4582 35.8621 95.5277 35.7931 95.7362C35.7241 95.9447 35.6897 96.1184 35.6897 96.2574C35.9655 96.1879 36.0345 96.0142 35.8966 95.7362C35.8276 95.4582 35.8621 95.3191 36 95.3191C35.931 95.0411 35.8276 94.9716 35.6897 95.1106C35.5517 95.2496 35.4828 95.1454 35.4828 94.7979C35.5517 94.5199 35.6897 94.4504 35.8966 94.5894C36.1034 94.6589 36.1379 94.5894 36 94.3809C36.2069 94.3113 36.2759 94.3809 36.2069 94.5894C36.2069 94.7284 36.2759 94.8674 36.4138 95.0064C36.6897 94.6589 36.7586 94.2766 36.6207 93.8596C36.5517 93.373 36.5862 92.956 36.7241 92.6085C36.5862 92.7475 36.5172 92.956 36.5172 93.234C36.5172 93.5121 36.4483 93.7553 36.3103 93.9638C36.1034 93.7553 36.0345 93.4426 36.1034 93.0255C36.2414 92.539 36.3103 92.122 36.3103 91.7745C36.3103 91.4269 36.2414 91.3575 36.1034 91.566C35.9655 91.705 35.8966 91.6355 35.8966 91.3574C36.1724 91.0099 36.3103 90.6624 36.3103 90.3149C36.3793 89.8979 36.4138 89.4461 36.4138 88.9596C36.6207 88.8901 36.7241 88.8206 36.7241 88.7511C36.6552 88.6121 36.5862 88.5773 36.5172 88.6468C36.4483 88.6468 36.4138 88.7511 36.4138 88.9596C36.1379 88.8206 36.069 88.6468 36.2069 88.4383C36.3448 88.2298 36.4828 88.0908 36.6207 88.0213C36.8276 88.0213 36.931 88.0908 36.931 88.2298C37 88.3688 37.069 88.4731 37.1379 88.5426C37.1379 87.9865 37.069 87.5 36.931 87.083C36.7931 86.5965 36.6897 86.0752 36.6207 85.5191C36.8276 85.7277 36.931 85.6582 36.931 85.3106C36.931 84.9631 36.931 84.7199 36.931 84.5809C37.2069 84.5809 37.3103 84.7546 37.2414 85.1021C37.1724 85.4496 37.3103 85.6234 37.6552 85.6234C37.7241 85.0674 37.6552 84.5113 37.4483 83.9553C37.2414 83.3993 37.1034 82.8433 37.0345 82.2872C37.1724 82.1482 37.2759 82.1135 37.3448 82.183C37.4138 82.2525 37.5172 82.322 37.6552 82.3915C37.7931 82.183 37.8965 82.044 37.9655 81.9745C38.0345 81.8355 38 81.6617 37.8621 81.4532C37.6552 81.3142 37.5862 81.3837 37.6552 81.6617C37.7241 81.8702 37.6207 81.9397 37.3448 81.8702C37.2069 81.3837 37.2414 81.0014 37.4483 80.7234C37.6552 80.3759 37.7241 79.9241 37.6552 79.3681C37.8621 79.4376 37.9655 79.5766 37.9655 79.7851C37.9655 79.9241 37.931 80.0979 37.8621 80.3064C37.8621 80.4454 37.8276 80.6191 37.7586 80.8277C37.7586 80.9667 37.8621 81.0709 38.069 81.1404C38.2759 81.0014 38.3448 80.7234 38.2759 80.3064C38.2069 79.8894 38.3103 79.6809 38.5862 79.6809C37.8276 84.8241 37.3103 90.0021 37.0345 95.2149C36.8276 100.428 36.7931 105.884 36.931 111.583C36.7931 111.513 36.6897 111.409 36.6207 111.27C36.5517 111.131 36.4483 110.992 36.3103 110.853C36.1034 110.784 35.8965 110.888 35.6897 111.166C35.5517 111.513 35.4138 111.513 35.2759 111.166C35.2069 111.513 35.2414 111.652 35.3793 111.583C35.5172 111.583 35.6207 111.652 35.6897 111.791C35.4828 112.07 35.1724 112.07 34.7586 111.791C34.3448 111.513 34.0345 111.409 33.8276 111.479C34.0345 108.768 34.0345 105.918 33.8276 102.93C33.6207 100.011 33.6897 97.3 34.0345 94.7979C34.2414 96.1879 34.2414 97.578 34.0345 98.9681C33.8965 100.428 33.931 101.887 34.1379 103.347C34.3448 101.54 34.4138 99.8021 34.3448 98.134C34.3448 96.5355 34.4138 94.9369 34.5517 93.3383C34.6897 94.3809 34.7586 95.4929 34.7586 96.6745C34.7586 97.9255 34.7241 99.1766 34.6552 100.428C34.6552 101.679 34.6552 102.895 34.6552 104.077C34.6552 105.258 34.7586 106.37 34.9655 107.413C34.8276 107.76 34.7931 108.177 34.8621 108.664C34.931 109.15 35.0345 109.602 35.1724 110.019C35.5172 109.672 35.6897 109.185 35.6897 108.56C35.6897 107.934 35.7586 107.343 35.8966 106.787C35.7586 106.787 35.6552 106.857 35.5862 106.996ZM37.7586 83.017C37.8966 83.3645 37.9655 83.3645 37.9655 83.017C37.9655 82.6695 37.8966 82.6695 37.7586 83.017ZM37.3448 85.8319C37.2069 86.0404 37.2414 86.1794 37.4483 86.2489C37.6552 86.2489 37.6207 86.1099 37.3448 85.8319ZM37.3448 87.3957C37.2069 87.6043 37.2414 87.6043 37.4483 87.3957C37.6552 87.1872 37.6207 87.1872 37.3448 87.3957ZM36.7241 90.3149C36.8621 90.6624 36.931 90.6624 36.931 90.3149C36.931 89.9674 36.8621 89.9674 36.7241 90.3149ZM36.7241 91.0447C36.8621 91.3922 36.931 91.3922 36.931 91.0447C36.931 90.6972 36.8621 90.6972 36.7241 91.0447ZM36.4138 92.1915C36.6897 92.3305 36.8276 92.261 36.8276 91.983C36.8276 91.6355 36.7586 91.5312 36.6207 91.6702C36.6207 91.7397 36.5862 91.8092 36.5172 91.8787C36.4483 91.9482 36.4138 92.0525 36.4138 92.1915ZM34.4483 107.204C34.4483 106.787 34.4828 106.127 34.5517 105.223C34.6207 104.389 34.4483 103.833 34.0345 103.555C34.1034 103.764 34.1379 104.042 34.1379 104.389C34.1379 104.737 34.1379 105.084 34.1379 105.432C34.1379 105.779 34.1379 106.092 34.1379 106.37C34.2069 106.718 34.3103 106.996 34.4483 107.204ZM34.9655 92.9213C35.2414 92.7823 35.3793 92.8518 35.3793 93.1298C35.3793 93.4078 35.2414 93.4773 34.9655 93.3383V92.9213ZM35.6897 94.2766C35.8276 93.9291 35.8966 93.9291 35.8966 94.2766C35.8966 94.5546 35.8276 94.5546 35.6897 94.2766ZM35.5862 97.6128C35.7931 97.8213 35.8276 98.0645 35.6897 98.3426C35.5517 98.6901 35.5172 99.0376 35.5862 99.3851C35.4483 99.1766 35.4138 98.8638 35.4828 98.4468C35.5517 98.0993 35.5862 97.8213 35.5862 97.6128ZM35.4828 102.409C35.6897 102.895 35.7586 103.486 35.6897 104.181C35.6207 104.876 35.6207 105.397 35.6897 105.745C35.3448 105.675 35.1724 105.223 35.1724 104.389C35.2414 103.625 35.3448 102.965 35.4828 102.409ZM35.5862 106.996V107.517C35.5172 107.448 35.4828 107.378 35.4828 107.309C35.4828 107.239 35.4138 107.135 35.2759 106.996H35.5862ZM35.2759 108.247C35.4138 107.969 35.4828 107.969 35.4828 108.247C35.4828 108.594 35.4138 108.594 35.2759 108.247Z" fill="#E9F1ED" />
</svg>
