<svg xmlns="http://www.w3.org/2000/svg" width="1067" height="651" viewBox="0 0 1067 651" fill="none">
	<path d="M19.164 3.97661C19.1274 3.97532 19.0908 3.97402 19.0543 3.9727C19.1743 3.9727 19.2896 3.97266 19.4001 3.97257C21.8541 3.93211 22.5748 3.96997 19.4001 3.97257C19.3231 3.97383 19.2444 3.97518 19.164 3.97661C29.045 4.32432 43.1967 3.73437 52.7147 4.85211C59.2684 5.62174 66.3491 6.11371 73.1514 6.4418C85.1639 7.02119 97.91 9.16303 109.417 10.3991C134.478 13.0914 176.85 17.4024 201.081 12.8006C218.201 9.54921 230.82 4.93352 251.672 4.58152C262.795 4.39376 273.275 3.54713 284.13 3.36388C288.821 3.28469 303.901 0.0586665 304.366 0.184495C315.61 3.22151 328.071 7.16801 342.735 8.26826C366.137 10.024 389.793 8.96422 413.061 11.5829C414.992 11.8002 443.339 25.8455 445.359 24.9929C449.759 23.136 456.029 22.0727 462.49 21.1032C469.807 20.0052 473.949 26.5487 482.552 26.5487C487.492 26.5487 488.244 26.0855 492.37 25.4664C495.49 24.9982 499.425 25.7447 502.288 24.9929C507.302 23.676 506.348 34.116 513.141 34.116C516.48 34.116 518.401 34.7248 521.256 34.7248C525.432 34.7248 528.364 33.5891 532.977 33.5071C543.342 33.323 543.397 32.6964 548.805 36.5512C551.443 38.4312 555.108 39.1195 559.625 40.3395C564.956 41.7795 569.729 43.0023 576.655 43.7218C587.811 44.8807 603.391 44.246 612.72 46.7659C618.098 48.2185 628.745 48.259 634.359 49.8099C643.003 52.1977 657.977 53.0423 668.22 54.6805C673.079 55.4575 705.58 60.5094 709.694 58.7731C717.493 55.4818 733.562 52.3683 744.858 50.2496C752.984 48.7255 759.817 48.7263 769.201 48.7275L770.003 48.7276C774.497 48.7276 774.636 49.8418 778.618 49.9452C783.8 50.0798 788.057 50.554 793.545 50.554C814.665 50.554 834.978 50.3053 855.556 52.0423C864.039 52.7583 873.978 54.2069 882.805 54.2069H909.854C912.496 54.2069 918.99 54.6129 920.673 53.9025C922.774 53.0158 929.022 54.7057 931.493 54.951C940.202 55.8159 949.342 58.8948 958.541 59.0775C962.135 59.1488 964.318 59.6737 967.557 60.1598C973.199 61.0063 980.582 59.708 986.391 60.5995C994.406 61.8296 1009.35 60.5136 1016.14 62.426C1019.37 63.3327 1040.55 63.005 1044.45 63.381C1057.41 64.6315 1058.07 69.3126 1058.07 72.9868C1069.56 89.4446 1062.32 588.437 1061.69 646.014C1062.34 646.756 1063.49 647.261 1065.45 647.308C1067.2 647.35 1065.17 647.343 1061.67 647.316C1061.66 649.119 1061.65 650.348 1061.65 650.961V647.316C1055.69 647.271 1045.54 647.173 1042.56 647.173H1041.6C1034.6 647.172 1026.78 647.172 1019.42 647.308C995.399 647.752 972.179 647.657 948.391 647.139C911.513 646.336 873.603 643.52 836.891 643.52C800.043 643.52 764.007 642.911 727.395 642.911H658.771C636.505 642.911 614.763 643.966 592.552 644.095C542.158 644.388 491.682 644.129 441.281 644.129H117.9H52.1825C44.8011 644.129 35.8766 644.581 28.6402 644.129C2.83176 644.129 -0.21063 625.556 4.79836 625.556C-0.302428 616.428 1.02189 54.9985 1.02189 45.7106V14.3226V6.40798C1.02189 4.53031 13.7776 4.07229 19.164 3.97661Z" fill="#122718" />
</svg>
