<svg width="176" height="713" viewBox="0 0 176 713" fill="none" xmlns="http://www.w3.org/2000/svg">
<mask id="mask0_7827_40081" style="mask-type:alpha" maskUnits="userSpaceOnUse" x="69" y="0" width="67" height="713">
<path d="M80.5254 1C77.9275 23.2262 70 53.5424 70 75.949C70 93.7246 73.8937 112.34 70.8572 129.952C67.2142 151.082 81.1663 185.727 93.2395 202.719C109.875 226.131 125.055 253.884 131.337 282.152C135.872 302.562 135.235 322.74 132.099 343.298C130.65 352.798 132.181 362.494 130.67 372.062C128.995 382.672 126.584 393.161 124.479 403.683C120.998 421.091 115.224 436.12 105.145 451.019C97.5887 462.189 91.4098 471.311 90.4774 484.831C89.2866 502.097 80.8793 519.269 77.7147 536.358C74.9715 551.171 78.5719 565.15 78.5719 579.789C78.5719 602.832 76.7353 625.13 83.3341 647.126C89.8155 668.731 81.5723 690.464 83.7151 711.892" stroke="#E64827" stroke-width="2" stroke-linecap="round"/>
</mask>
<g mask="url(#mask0_7827_40081)">
<rect x="31" width="133" height="713" fill="#E64828"/>
</g>
</svg>
