<svg width="67" height="64" viewBox="0 0 67 64" fill="none" xmlns="http://www.w3.org/2000/svg">
<rect y="6" width="58" height="58" rx="29" fill="white" fill-opacity="0.15"/>
<rect x="5.5" y="11.5" width="47" height="47" rx="23.5" stroke="white" stroke-opacity="0.15" stroke-width="3"/>
<path d="M9.90234 54.1085L12.5994 44.2727C10.9397 41.3965 10.0627 38.1242 10.0627 34.7859C10.0627 24.3183 18.5876 15.8027 29.0458 15.8027C34.1287 15.8027 38.891 17.7831 42.4745 21.3666C46.058 24.9501 48.0289 29.7218 48.0289 34.7953C48.0289 45.2629 39.504 53.7785 29.0458 53.7785H29.0364C25.8584 53.7785 22.7369 52.9769 19.9644 51.468L9.90234 54.1085Z" fill="#E64827"/>
<path d="M9.21484 54.7943L12.0062 44.6096C10.2899 41.6296 9.37516 38.2441 9.38459 34.7832C9.38459 23.9384 18.2113 15.1211 29.0561 15.1211C34.3182 15.1211 39.2597 17.1675 42.9658 20.883C46.6813 24.5985 48.7277 29.54 48.7183 34.7927C48.7183 45.6375 39.8915 54.4548 29.0467 54.4548H29.0373C25.7461 54.4548 22.5115 53.6249 19.6353 52.0595L9.21484 54.7943ZM20.1257 48.4948L20.7198 48.8532C23.2282 50.3432 26.1045 51.1259 29.0373 51.1353H29.0467C38.0526 51.1353 45.3894 43.808 45.3894 34.7927C45.3894 30.4264 43.6919 26.3243 40.6082 23.2311C37.5245 20.138 33.4129 18.4406 29.0467 18.4406C20.0314 18.4406 12.6946 25.7679 12.6946 34.7832C12.6946 37.8669 13.5528 40.8752 15.1936 43.4779L15.5803 44.1003L13.93 50.1263L20.1257 48.4948Z" fill="white"/>
<path d="M24.1321 26.5515C23.7643 25.7311 23.3777 25.7122 23.0287 25.7028C22.7458 25.6934 22.4158 25.6934 22.0857 25.6934C21.7557 25.6934 21.2276 25.816 20.7749 26.3063C20.3223 26.7967 19.0586 27.9849 19.0586 30.4085C19.0586 32.8226 20.8221 35.1614 21.0672 35.4914C21.3124 35.8215 24.4716 40.9421 29.4602 42.913C33.6095 44.5539 34.4582 44.2239 35.3541 44.139C36.2594 44.0541 38.2586 42.9508 38.6736 41.8003C39.0791 40.6498 39.0791 39.669 38.9565 39.4616C38.8339 39.2541 38.5038 39.1315 38.0134 38.8863C37.5231 38.6411 35.1089 37.4529 34.6563 37.2832C34.2036 37.1134 33.8736 37.038 33.5529 37.5284C33.2229 38.0187 32.2798 39.1221 31.9969 39.4521C31.714 39.7822 31.4217 39.8199 30.9313 39.5747C30.4409 39.3295 28.8567 38.8109 26.98 37.1323C25.5183 35.8309 24.5282 34.2183 24.2452 33.728C23.9623 33.2376 24.217 32.9735 24.4621 32.7283C24.679 32.5114 24.9525 32.1531 25.1977 31.8702C25.4429 31.5873 25.5278 31.3798 25.6881 31.0498C25.8484 30.7197 25.7729 30.4368 25.6504 30.1916C25.5278 29.9464 24.5659 27.5228 24.1321 26.5515Z" fill="white"/>
<g filter="url(#filter0_d_3701_1318)">
<circle cx="51" cy="16" r="6" fill="#17E268"/>
</g>
<defs>
<filter id="filter0_d_3701_1318" x="35" y="0" width="32" height="32" filterUnits="userSpaceOnUse" color-interpolation-filters="sRGB">
<feFlood flood-opacity="0" result="BackgroundImageFix"/>
<feColorMatrix in="SourceAlpha" type="matrix" values="0 0 0 0 0 0 0 0 0 0 0 0 0 0 0 0 0 0 127 0" result="hardAlpha"/>
<feOffset/>
<feGaussianBlur stdDeviation="5"/>
<feComposite in2="hardAlpha" operator="out"/>
<feColorMatrix type="matrix" values="0 0 0 0 0.305882 0 0 0 0 0.94902 0 0 0 0 0.25098 0 0 0 0.6 0"/>
<feBlend mode="normal" in2="BackgroundImageFix" result="effect1_dropShadow_3701_1318"/>
<feBlend mode="normal" in="SourceGraphic" in2="effect1_dropShadow_3701_1318" result="shape"/>
</filter>
</defs>
</svg>
